# xmcd CD database file
#
# Track frame offsets:
#	182
#	13495
#	28565
#	46325
#	61865
#	78985
#	97767
#	113607
#	131770
#	143957
#	158207
#
# Disc length: 2309 seconds
#
# Revision: 3
# Processed by: cddbd v1.5.2PL0 Copyright (c) Steve Scherf et al.
# Submitted via: CDex 1.51
#
DISCID=8809030b
DTITLE=Delbert McClinton - Best Of
DYEAR=1991
DGENRE=Blues
TTITLE0=A Fool In Love
TTITLE1=The Real Thing
TTITLE2=I've Got Dreams To Remember
TTITLE3=Heartbreak Radio
TTITLE4=Givin' It Up For Your Love
TTITLE5=Go On
TTITLE6=Take Me To The River
TTITLE7=I Want To Love You
TTITLE8=Who's Foolin' Who
TTITLE9=Shotgun Rider
TTITLE10=I Wanna Thank You Baby
EXTD=YEAR: 1991
EXTT0=
EXTT1=
EXTT2=
EXTT3=
EXTT4=
EXTT5=
EXTT6=
EXTT7=
EXTT8=
EXTT9=
EXTT10=
PLAYORDER=
